<mxfile host="65bd71144e">
    <diagram id="lhFiQjkHRKb4PspZnoPW" name="Schema">
        <mxGraphModel dx="355" dy="205" grid="1" gridSize="10" guides="1" tooltips="1" connect="1" arrows="1" fold="1" page="1" pageScale="1" pageWidth="827" pageHeight="1169" math="0" shadow="0">
            <root>
                <mxCell id="0"/>
                <mxCell id="1" parent="0"/>
                <mxCell id="r_SquNrpFk_jz5t-ATv--5" value="" style="edgeStyle=none;html=1;entryX=0.5;entryY=0;entryDx=0;entryDy=0;exitX=0.5;exitY=1;exitDx=0;exitDy=0;" parent="1" source="7" target="6" edge="1">
                    <mxGeometry relative="1" as="geometry">
                        <mxPoint x="411" y="210" as="targetPoint"/>
                        <mxPoint x="414" y="178" as="sourcePoint"/>
                    </mxGeometry>
                </mxCell>
                <mxCell id="r_SquNrpFk_jz5t-ATv--8" style="edgeStyle=none;html=1;exitX=1;exitY=0.5;exitDx=0;exitDy=0;entryX=1;entryY=0.5;entryDx=0;entryDy=0;fillColor=#a20025;strokeColor=#6F0000;" parent="1" source="r_SquNrpFk_jz5t-ATv--48" target="7" edge="1">
                    <mxGeometry relative="1" as="geometry">
                        <Array as="points">
                            <mxPoint x="569" y="358"/>
                            <mxPoint x="569" y="137"/>
                        </Array>
                        <mxPoint x="464" y="148" as="targetPoint"/>
                    </mxGeometry>
                </mxCell>
                <mxCell id="r_SquNrpFk_jz5t-ATv--12" value="" style="edgeStyle=none;html=1;fillColor=#60a917;strokeColor=#2D7600;exitX=0.5;exitY=1;exitDx=0;exitDy=0;" parent="1" source="r_SquNrpFk_jz5t-ATv--48" target="r_SquNrpFk_jz5t-ATv--11" edge="1">
                    <mxGeometry relative="1" as="geometry"/>
                </mxCell>
                <mxCell id="r_SquNrpFk_jz5t-ATv--14" value="" style="edgeStyle=none;html=1;" parent="1" source="r_SquNrpFk_jz5t-ATv--11" target="r_SquNrpFk_jz5t-ATv--13" edge="1">
                    <mxGeometry relative="1" as="geometry"/>
                </mxCell>
                <mxCell id="r_SquNrpFk_jz5t-ATv--11" value="Filtrer tous les mots inférieurs à 3 lettres" style="rounded=1;whiteSpace=wrap;html=1;strokeWidth=2;fillColor=#6d8764;fontColor=#ffffff;strokeColor=#3A5431;arcSize=0;" parent="1" vertex="1">
                    <mxGeometry x="351" y="450" width="120" height="60" as="geometry"/>
                </mxCell>
                <mxCell id="r_SquNrpFk_jz5t-ATv--15" style="edgeStyle=none;html=1;entryX=1;entryY=0.5;entryDx=0;entryDy=0;fillColor=#a20025;strokeColor=#6F0000;" parent="1" source="r_SquNrpFk_jz5t-ATv--13" target="7" edge="1">
                    <mxGeometry relative="1" as="geometry">
                        <Array as="points">
                            <mxPoint x="569" y="593"/>
                            <mxPoint x="570" y="137"/>
                        </Array>
                        <mxPoint x="464" y="148" as="targetPoint"/>
                    </mxGeometry>
                </mxCell>
                <mxCell id="r_SquNrpFk_jz5t-ATv--13" value="reste-t-il au moins&lt;br&gt;&amp;nbsp;un mot ?" style="rhombus;whiteSpace=wrap;html=1;rounded=1;strokeWidth=2;fillColor=#f0a30a;fontColor=#000000;strokeColor=#BD7000;arcSize=0;" parent="1" vertex="1">
                    <mxGeometry x="351" y="533" width="120" height="120" as="geometry"/>
                </mxCell>
                <mxCell id="r_SquNrpFk_jz5t-ATv--22" value="" style="edgeStyle=none;html=1;exitX=0.5;exitY=1;exitDx=0;exitDy=0;fillColor=#60a917;strokeColor=#2D7600;" parent="1" source="r_SquNrpFk_jz5t-ATv--13" target="r_SquNrpFk_jz5t-ATv--21" edge="1">
                    <mxGeometry relative="1" as="geometry">
                        <mxPoint x="410" y="645" as="sourcePoint"/>
                    </mxGeometry>
                </mxCell>
                <mxCell id="r_SquNrpFk_jz5t-ATv--25" style="edgeStyle=none;html=1;entryX=0.5;entryY=0;entryDx=0;entryDy=0;exitX=0.5;exitY=1;exitDx=0;exitDy=0;fillColor=#60a917;strokeColor=#2D7600;" parent="1" source="r_SquNrpFk_jz5t-ATv--13" target="r_SquNrpFk_jz5t-ATv--24" edge="1">
                    <mxGeometry relative="1" as="geometry">
                        <mxPoint x="410" y="645" as="sourcePoint"/>
                        <Array as="points">
                            <mxPoint x="410" y="688"/>
                            <mxPoint x="566" y="688"/>
                        </Array>
                    </mxGeometry>
                </mxCell>
                <mxCell id="r_SquNrpFk_jz5t-ATv--26" style="edgeStyle=none;html=1;entryX=0.5;entryY=0;entryDx=0;entryDy=0;fillColor=#60a917;strokeColor=#2D7600;exitX=0.501;exitY=1.012;exitDx=0;exitDy=0;exitPerimeter=0;" parent="1" source="r_SquNrpFk_jz5t-ATv--13" target="r_SquNrpFk_jz5t-ATv--23" edge="1">
                    <mxGeometry relative="1" as="geometry">
                        <mxPoint x="412" y="550" as="sourcePoint"/>
                        <Array as="points">
                            <mxPoint x="410" y="688"/>
                            <mxPoint x="256" y="688"/>
                        </Array>
                    </mxGeometry>
                </mxCell>
                <mxCell id="r_SquNrpFk_jz5t-ATv--32" value="" style="edgeStyle=none;html=1;fillColor=#f5f5f5;gradientColor=#b3b3b3;strokeColor=#666666;fontColor=#000000;" parent="1" source="r_SquNrpFk_jz5t-ATv--21" target="r_SquNrpFk_jz5t-ATv--31" edge="1">
                    <mxGeometry relative="1" as="geometry"/>
                </mxCell>
                <mxCell id="r_SquNrpFk_jz5t-ATv--21" value="Comparer avec les descriptions" style="shape=process;whiteSpace=wrap;html=1;backgroundOutline=1;rounded=1;strokeWidth=2;fillColor=#6d8764;strokeColor=#3A5431;fontColor=#ffffff;arcSize=0;size=0;" parent="1" vertex="1">
                    <mxGeometry x="350" y="718" width="120" height="60" as="geometry"/>
                </mxCell>
                <mxCell id="r_SquNrpFk_jz5t-ATv--34" style="edgeStyle=none;html=1;entryX=0.5;entryY=0;entryDx=0;entryDy=0;fillColor=#f5f5f5;gradientColor=#b3b3b3;strokeColor=#666666;fontColor=#000000;" parent="1" source="r_SquNrpFk_jz5t-ATv--23" target="r_SquNrpFk_jz5t-ATv--31" edge="1">
                    <mxGeometry relative="1" as="geometry">
                        <mxPoint x="420" y="848" as="targetPoint"/>
                        <Array as="points">
                            <mxPoint x="256" y="810"/>
                            <mxPoint x="410" y="810"/>
                        </Array>
                    </mxGeometry>
                </mxCell>
                <mxCell id="r_SquNrpFk_jz5t-ATv--23" value="Comparer avec &lt;br&gt;les titres" style="shape=process;whiteSpace=wrap;html=1;backgroundOutline=1;rounded=1;strokeWidth=2;fillColor=#6d8764;strokeColor=#3A5431;fontColor=#ffffff;arcSize=0;size=0;" parent="1" vertex="1">
                    <mxGeometry x="196" y="718" width="120" height="60" as="geometry"/>
                </mxCell>
                <mxCell id="r_SquNrpFk_jz5t-ATv--35" style="edgeStyle=none;html=1;entryX=0.5;entryY=0;entryDx=0;entryDy=0;fillColor=#f5f5f5;gradientColor=#b3b3b3;strokeColor=#666666;fontColor=#000000;" parent="1" source="r_SquNrpFk_jz5t-ATv--24" target="r_SquNrpFk_jz5t-ATv--31" edge="1">
                    <mxGeometry relative="1" as="geometry">
                        <Array as="points">
                            <mxPoint x="566" y="810"/>
                            <mxPoint x="410" y="810"/>
                        </Array>
                    </mxGeometry>
                </mxCell>
                <mxCell id="r_SquNrpFk_jz5t-ATv--24" value="Comparer avec les ingredients" style="shape=process;whiteSpace=wrap;html=1;backgroundOutline=1;rounded=1;strokeWidth=2;fillColor=#6d8764;strokeColor=#3A5431;fontColor=#ffffff;size=0;arcSize=0;" parent="1" vertex="1">
                    <mxGeometry x="506" y="718" width="120" height="60" as="geometry"/>
                </mxCell>
                <mxCell id="r_SquNrpFk_jz5t-ATv--40" value="" style="edgeStyle=none;html=1;entryX=0.5;entryY=0;entryDx=0;entryDy=0;exitX=0.5;exitY=1;exitDx=0;exitDy=0;" parent="1" source="9" target="r_SquNrpFk_jz5t-ATv--39" edge="1">
                    <mxGeometry relative="1" as="geometry">
                        <Array as="points">
                            <mxPoint x="570" y="1010"/>
                            <mxPoint x="420" y="1010"/>
                        </Array>
                    </mxGeometry>
                </mxCell>
                <mxCell id="r_SquNrpFk_jz5t-ATv--36" style="edgeStyle=none;html=1;entryX=0;entryY=0.5;entryDx=0;entryDy=0;fillColor=#a20025;strokeColor=#6F0000;strokeWidth=1;" parent="1" source="r_SquNrpFk_jz5t-ATv--31" target="9" edge="1">
                    <mxGeometry relative="1" as="geometry">
                        <mxPoint x="510" y="888" as="targetPoint"/>
                    </mxGeometry>
                </mxCell>
                <mxCell id="r_SquNrpFk_jz5t-ATv--38" value="" style="edgeStyle=none;html=1;fillColor=#60a917;strokeColor=#2D7600;entryX=1;entryY=0.5;entryDx=0;entryDy=0;" parent="1" source="r_SquNrpFk_jz5t-ATv--31" target="8" edge="1">
                    <mxGeometry relative="1" as="geometry"/>
                </mxCell>
                <mxCell id="r_SquNrpFk_jz5t-ATv--31" value="Reste-t-il au moins une recette ?" style="rhombus;whiteSpace=wrap;html=1;rounded=1;strokeWidth=2;fillColor=#f0a30a;fontColor=#000000;strokeColor=#BD7000;arcSize=0;" parent="1" vertex="1">
                    <mxGeometry x="350" y="828" width="120" height="120" as="geometry"/>
                </mxCell>
                <mxCell id="r_SquNrpFk_jz5t-ATv--41" style="edgeStyle=none;html=1;entryX=0.5;entryY=0;entryDx=0;entryDy=0;exitX=0.5;exitY=1;exitDx=0;exitDy=0;" parent="1" source="8" target="r_SquNrpFk_jz5t-ATv--39" edge="1">
                    <mxGeometry relative="1" as="geometry">
                        <Array as="points">
                            <mxPoint x="260" y="1010"/>
                            <mxPoint x="420" y="1010"/>
                        </Array>
                    </mxGeometry>
                </mxCell>
                <mxCell id="r_SquNrpFk_jz5t-ATv--42" style="edgeStyle=none;html=1;entryX=0;entryY=0.5;entryDx=0;entryDy=0;fillColor=#60a917;strokeColor=#2D7600;" parent="1" source="r_SquNrpFk_jz5t-ATv--39" target="6" edge="1">
                    <mxGeometry relative="1" as="geometry">
                        <Array as="points">
                            <mxPoint x="110" y="1098"/>
                            <mxPoint x="110" y="240"/>
                        </Array>
                        <mxPoint x="351" y="240" as="targetPoint"/>
                    </mxGeometry>
                </mxCell>
                <mxCell id="r_SquNrpFk_jz5t-ATv--44" style="edgeStyle=none;html=1;entryX=0;entryY=0.5;entryDx=0;entryDy=0;entryPerimeter=0;fillColor=#a20025;strokeColor=#6F0000;" parent="1" source="r_SquNrpFk_jz5t-ATv--39" target="r_SquNrpFk_jz5t-ATv--43" edge="1">
                    <mxGeometry relative="1" as="geometry"/>
                </mxCell>
                <mxCell id="r_SquNrpFk_jz5t-ATv--39" value="La recherche continue-t-elle ?" style="rhombus;whiteSpace=wrap;html=1;rounded=1;strokeWidth=2;fontColor=#000000;fillColor=#f0a30a;strokeColor=#BD7000;arcSize=0;" parent="1" vertex="1">
                    <mxGeometry x="365" y="1042.5" width="109" height="109" as="geometry"/>
                </mxCell>
                <mxCell id="r_SquNrpFk_jz5t-ATv--43" value="Fin" style="strokeWidth=2;html=1;shape=mxgraph.flowchart.terminator;whiteSpace=wrap;fillColor=#B3B3B3;strokeColor=#CCCCCC;fontColor=#000000;" parent="1" vertex="1">
                    <mxGeometry x="610" y="1067" width="100" height="60" as="geometry"/>
                </mxCell>
                <mxCell id="r_SquNrpFk_jz5t-ATv--47" value="" style="edgeStyle=none;html=1;exitX=0.5;exitY=1;exitDx=0;exitDy=0;" parent="1" source="6" target="r_SquNrpFk_jz5t-ATv--48" edge="1">
                    <mxGeometry relative="1" as="geometry">
                        <mxPoint x="411" y="270" as="sourcePoint"/>
                    </mxGeometry>
                </mxCell>
                <mxCell id="r_SquNrpFk_jz5t-ATv--48" value="Plus de 3 lettres ?" style="rhombus;whiteSpace=wrap;html=1;rounded=1;fillColor=#f0a30a;fontColor=#000000;strokeColor=#BD7000;arcSize=0;" parent="1" vertex="1">
                    <mxGeometry x="350" y="300" width="122" height="122" as="geometry"/>
                </mxCell>
                <mxCell id="4" style="edgeStyle=none;html=1;entryX=0.5;entryY=0;entryDx=0;entryDy=0;exitX=0.5;exitY=1;exitDx=0;exitDy=0;exitPerimeter=0;" parent="1" source="3" target="7" edge="1">
                    <mxGeometry relative="1" as="geometry">
                        <mxPoint x="411.7692307692307" y="70" as="sourcePoint"/>
                        <mxPoint x="414" y="118" as="targetPoint"/>
                    </mxGeometry>
                </mxCell>
                <mxCell id="3" value="Début" style="strokeWidth=2;html=1;shape=mxgraph.flowchart.terminator;whiteSpace=wrap;fillColor=#B3B3B3;strokeColor=#CCCCCC;fontColor=#000000;" parent="1" vertex="1">
                    <mxGeometry x="363" y="10" width="100" height="60" as="geometry"/>
                </mxCell>
                <mxCell id="6" value="Ecouter la recherche principale" style="shape=parallelogram;perimeter=parallelogramPerimeter;whiteSpace=wrap;html=1;fixedSize=1;" parent="1" vertex="1">
                    <mxGeometry x="339" y="210" width="150" height="60" as="geometry"/>
                </mxCell>
                <mxCell id="7" value="&lt;span style=&quot;color: rgb(255, 255, 255);&quot;&gt;Afficher toutes les recettes&lt;/span&gt;" style="shape=parallelogram;perimeter=parallelogramPerimeter;whiteSpace=wrap;html=1;fixedSize=1;fillColor=#76608a;fontColor=#ffffff;strokeColor=#432D57;" parent="1" vertex="1">
                    <mxGeometry x="348.5" y="107" width="129" height="60" as="geometry"/>
                </mxCell>
                <mxCell id="8" value="Afficher les recettes restantes" style="shape=parallelogram;perimeter=parallelogramPerimeter;whiteSpace=wrap;html=1;fixedSize=1;fillColor=#6d8764;fontColor=#ffffff;strokeColor=#3A5431;" parent="1" vertex="1">
                    <mxGeometry x="195" y="859" width="129" height="60" as="geometry"/>
                </mxCell>
                <mxCell id="9" value="Afficher le message approprié" style="shape=parallelogram;perimeter=parallelogramPerimeter;whiteSpace=wrap;html=1;fixedSize=1;fillColor=#a20025;fontColor=#ffffff;strokeColor=#6F0000;" parent="1" vertex="1">
                    <mxGeometry x="494.5" y="858" width="151" height="60" as="geometry"/>
                </mxCell>
            </root>
        </mxGraphModel>
    </diagram>
</mxfile>